<svg width="137" height="160" viewBox="0 0 137 160" fill="none" xmlns="http://www.w3.org/2000/svg">
<path d="M33.182 159.633L22.5963 143.398L0.243164 141.26L40.0062 74.7451L72.945 93.1179L33.182 159.633Z" fill="#723B08"/>
<path d="M136.149 141.199L114.445 142.421L103.194 159.572L63.4307 93.0573L96.3862 74.6846L136.149 141.199Z" fill="#723B08"/>
<path d="M66.5377 130.747L39.7572 109.304L8.19977 97.6826L13.6424 65.2289L7.9834 32.8716L40.3064 21.1375L66.9538 0L93.4015 21.1697L124.942 32.7752L119.516 65.2289L125.242 97.988L93.0353 109.674L66.5211 130.715" fill="#9E6106"/>
<path d="M66.7043 21.7412L27.7568 43.4413V86.8576L66.7043 108.574L105.635 86.8576V43.4413L66.7043 21.7412Z" stroke="#724E08" stroke-width="2" stroke-miterlimit="10"/>
</svg>
