<svg width="137" height="160" viewBox="0 0 137 160" fill="none" xmlns="http://www.w3.org/2000/svg">
<path d="M33.8081 159.633L23.2224 143.398L0.869141 141.26L40.6322 74.7451L73.5712 93.1179L33.8081 159.633Z" fill="#CB8855"/>
<path d="M136.776 141.201L115.072 142.422L103.821 159.573L64.0576 93.0583L97.0132 74.6855L136.776 141.201Z" fill="#CB8855"/>
<path d="M67.1638 130.747L40.3832 109.304L8.82575 97.6828L14.2684 65.2291L8.60938 32.8717L40.9325 21.1376L67.5799 0L94.0276 21.1697L125.568 32.7753L120.142 65.2291L125.868 97.9883L93.6615 109.674L67.1472 130.715" fill="#F5C043"/>
<path d="M67.3303 21.7412L28.3828 43.4414V86.8577L67.3303 108.574L106.261 86.8577V43.4414L67.3303 21.7412Z" stroke="#CB8855" stroke-width="2" stroke-miterlimit="10"/>
</svg>
