<svg width="136" height="160" viewBox="0 0 136 160" fill="none" xmlns="http://www.w3.org/2000/svg">
<path d="M32.9324 159.327L22.367 143.123L0.0566406 140.989L39.7435 74.6016L72.6193 92.9391L32.9324 159.327Z" fill="#797C80"/>
<path d="M135.702 140.929L114.04 142.149L102.81 159.267L63.123 92.8795L96.0154 74.542L135.702 140.929Z" fill="#797C80"/>
<path d="M66.2234 130.497L39.4942 109.095L7.99721 97.4955L13.4294 65.104L7.78125 32.8087L40.0424 21.097L66.6387 0L93.0357 21.1291L124.516 32.7124L119.1 65.104L124.815 97.8003L92.6702 109.464L66.2068 130.465" fill="#C2C6CC"/>
<path d="M66.3914 21.6992L27.5186 43.3578V86.6909L66.3914 108.365L105.248 86.6909V43.3578L66.3914 21.6992Z" stroke="#797C80" stroke-width="2" stroke-miterlimit="10"/>
</svg>
