<svg width="123" height="43" fill="none" xmlns="http://www.w3.org/2000/svg"><path fill-rule="evenodd" clip-rule="evenodd" d="M106.551 18.41h-9.818l1.873-8.01h-3.488l-1.873 8.01h-3.23l-.13.646h3.23l-4.328 17.763c-.323 1.034-.516 2.067-.516 3.165 0 1.421.904 2.649 2.842 2.649 3.488 0 5.232-4.91 5.426-5.49l-.517-.195c-.323.84-1.68 4.07-3.359 4.07-.71 0-.969-.388-.969-1.227 0-.517.065-1.099.259-1.615l4.521-19.056h6.46l-4.264 17.7c-.323.968-.452 2.002-.516 3.1 0 1.42.904 2.777 2.842 2.777 3.488 0 5.232-4.909 5.426-5.49l-.517-.194c-.323.775-1.744 4.07-3.294 4.07-.905 0-1.034-.517-1.034-1.292 0-.517.065-1.034.259-1.55l4.715-19.831zM83.103 40.953c-.904 0-1.098-.517-1.098-1.227 0-.581.065-1.098.258-1.68l3.1-12.918a11.46 11.46 0 00.582-3.618c0-1.55-.969-3.553-3.746-3.553-3.165 0-4.845 2.778-5.555 3.94l.84-3.552H70.83l-.194.646h3.165l-5.555 23.125h3.488l3.812-15.632c.904-3.553 2.906-7.17 5.232-7.17a1.742 1.742 0 011.873 1.615v.323c-.065.904-.258 1.873-.517 2.777l-3.036 12.79c-.258 1.098-.452 2.196-.516 3.294 0 1.422.904 2.52 2.842 2.52 3.488 0 5.232-4.91 5.49-5.49l-.517-.195c-.452 1.034-1.808 4.005-3.294 4.005m-19.96-2.842l4.716-19.637H64.37l-.582 2.52c-.258-1.81-1.873-3.166-3.682-3.101-4.134 0-6.2 3.617-7.493 7.3-.775 2.195-2.39 7.621-2.454 11.368-.13 3.94 1.68 6.072 4.521 6.072 2.649 0 4.393-2.842 5.039-4.328-.065.517-.13 1.033-.13 1.55-.129 1.421.97 2.649 2.39 2.778h.453c3.682 0 5.232-4.974 5.426-5.49l-.517-.195c-.323.84-1.68 4.07-3.359 4.07-.71 0-1.033-.517-.969-1.421-.065-.517 0-1.034.13-1.486m-2.779-3.423c-1.098 3.81-2.842 6.718-4.973 6.718-1.486 0-2.132-.905-2.067-3.036.129-4.651 2.648-12.92 3.294-14.728.969-3.1 2.325-4.845 4.07-4.845 1.614 0 2.39 1.486 2.325 3.23-.13 2.584-1.227 7.622-2.649 12.66zm-15.631 6.265c-.711 0-.97-.387-.97-1.227 0-.517.065-1.098.194-1.615L53.002.84h-6.783l-.129.646h3.165L40.73 36.819c-.323 1.098-.453 2.196-.517 3.295 0 1.292.71 2.519 2.713 2.519 3.617 0 5.361-4.78 5.62-5.49l-.517-.195c-.323.84-1.744 4.005-3.294 4.005zm61.688-31.328c-1.163 0-2.003.969-2.003 2.39-.064 1.098.711 2.002 1.809 2.067 1.098 0 2.002-.97 2.002-2.326 0-1.227-.775-2.131-1.808-2.131zm11.498 8.332c-4.199 0-6.395 3.166-7.687 7.235-.84 2.584-2.132 6.847-2.132 11.498 0 2.39 1.034 6.007 5.426 6.007 4.651 0 6.654-6.2 6.912-6.911l-.646-.323c-.646 1.615-2.325 5.878-5.297 5.878-1.873 0-2.907-1.55-2.907-4.457 0-4.199 1.228-8.591 2.261-12.015 1.292-4.199 2.132-6.201 4.07-6.201 1.292 0 2.067.646 2.067 1.486 0 1.227-.711 1.744-.711 2.842-.064.904.582 1.68 1.486 1.744h.064c1.099 0 1.745-.904 1.745-2.455 0-1.55-.776-4.392-4.651-4.328M34.721 40.953c-.646 0-1.033-.387-1.033-1.227 0-.517.13-1.098.258-1.615l4.587-19.055h3.746l.13-.646h-3.747L40.6 10.4H37.11l-1.938 8.01h-2.906l-.13.646h2.843L30.78 36.819a11.324 11.324 0 00-.517 3.294c0 1.228.71 2.52 2.713 2.52 3.682 0 5.297-4.845 5.62-5.49l-.517-.195c-.323.776-1.744 4.005-3.359 4.005M4.685 13.371H3.522L6.299 1.744h.453c1.292 0 1.55.13 1.162 2.52h.323l.646-2.843h-6.46l-.645 2.842H2.1c.71-2.002 1.033-2.519 2.325-2.519h.582L2.23 13.371H1.132l-.13.388H4.62l.065-.388zm2.648.388H8.56l1.292-5.232c.323-1.357 1.098-2.52 1.873-2.52.324 0 .646.194.646.517v.13c0 .387-.064.71-.193 1.097l-.97 4.005c-.129.388-.193.775-.193 1.228-.065.452.258.904.775.969h.194c1.292 0 1.809-1.55 1.938-1.938l-.259-.13c-.129.388-.581 1.357-1.098 1.357-.194 0-.323-.13-.323-.388 0-.322.065-.645.13-.968l.968-3.876c.13-.452.194-.84.194-1.292 0-.646-.517-1.227-1.163-1.227h-.129c-1.033 0-1.68.969-1.873 1.292l1.292-5.233H9.529l-.129.388h.84l-2.907 11.82zm8.979.129c1.614 0 2.39-2.002 2.519-2.39l-.258-.13c-.323.711-.905 1.939-2.003 1.939-.646 0-.969-.453-.969-1.292 0-.517.065-1.099.194-1.615 1.486-.388 4.07-1.744 4.07-3.618.064-.71-.453-1.356-1.163-1.42h-.323c-1.874 0-3.94 3.294-3.94 6.394-.065 1.163.387 2.132 1.873 2.132m2.067-8.139c.452 0 .581.194.581.646 0 1.356-1.292 3.1-3.1 3.617.452-2.196 1.55-4.263 2.519-4.263zM29.425 0L2.94 41.535H.809l-.129.646h6.653l.13-.646H3.78l10.141-15.89h9.496l-1.68 15.89h-3.1l-.13.646h9.625l.13-.646h-2.714L29.877 0h-.452zm-5.943 24.934h-9.108L25.162 7.945h.129l-1.809 16.989z" fill="#fff"/></svg>