<svg width="109" height="28" fill="none" xmlns="http://www.w3.org/2000/svg"><path fill-rule="evenodd" clip-rule="evenodd" d="M66.768 8.47c-1.577 0-3.083.358-4.445 1.147 0-3.944 0-7.6.143-8.82L54.15 2.303v.717l.86.143c1.148.216 1.506.86 1.721 2.367.216 3.011.144 18.857 0 21.51 2.295.573 4.59.86 6.955.86 6.597 0 10.54-4.087 10.54-10.54 0-5.162-3.226-8.89-7.457-8.89zM63.9 26.465c-.502 0-1.003 0-1.505-.143-.144-1.721-.215-9.034-.144-15.488a5.386 5.386 0 011.864-.358c2.725 0 4.23 3.226 4.23 7.17.073 4.947-1.792 8.82-4.445 8.82zM22.816 1.299H.948v1.147l1.218.143c1.65.216 2.223 1.22 2.51 3.585.287 5.45.287 10.899 0 16.42-.215 2.366-.86 3.441-2.51 3.585l-1.218.215v.932H15v-1.004l-1.506-.215c-1.649-.143-2.223-1.219-2.51-3.585-.143-1.649-.214-4.23-.214-7.457l3.01.144c1.865 0 2.725 1.505 3.084 3.585h1.147v-8.82h-1.147c-.358 2.08-1.219 3.586-3.083 3.586l-3.011.143c0-4.23.143-8.174.215-10.54h4.373c3.37 0 5.091 2.08 6.31 5.808l1.219-.359-.072-7.313z" fill="#fff"/><path fill-rule="evenodd" clip-rule="evenodd" d="M29.914 8.254c6.238 0 9.322 4.23 9.322 9.823 0 5.306-3.442 9.823-9.68 9.823-6.238 0-9.321-4.23-9.321-9.823 0-5.378 3.442-9.823 9.68-9.823zm-.358 1.219c-2.725 0-3.442 3.728-3.442 8.532 0 4.732 1.22 8.533 3.729 8.533 2.868 0 3.585-3.729 3.585-8.533-.072-4.66-1.291-8.532-3.872-8.532zM75.874 18.149c0-5.09 3.227-9.966 9.537-9.966 5.234 0 7.672 3.871 7.672 8.962H81.539c-.144 4.589 2.08 7.959 6.596 7.959 1.506.072 3.012-.43 4.23-1.362l.503.645c-1.793 2.223-4.59 3.513-7.457 3.441-5.593 0-9.537-3.943-9.537-9.679zm5.665-2.366l5.808-.143c0-2.51-.359-6.238-2.51-6.238s-3.155 3.513-3.298 6.38zM107.853 9.186c-1.793-.717-3.729-1.003-5.736-1.003-4.589 0-7.457 2.724-7.457 5.95 0 3.227 2.08 4.59 5.09 5.593 3.084 1.148 3.944 2.008 3.944 3.442a2.876 2.876 0 01-2.868 2.868h-.215c-2.366 0-4.087-1.362-5.45-5.09l-.86.214.144 5.45c2.08.717 4.374 1.147 6.596 1.147 4.876 0 7.959-2.51 7.959-6.31 0-2.581-1.362-4.087-4.589-5.306-3.441-1.362-4.732-2.222-4.732-3.871-.072-1.434 1.004-2.653 2.438-2.725h.215c2.223 0 3.728 1.362 4.876 4.732l.86-.215-.215-4.876zM55.368 8.756c-2.08-1.219-5.808-.645-7.815 3.872l.143-4.374-8.317 1.65v.716l.86.144c1.148.143 1.65.716 1.721 2.366.215 3.585.215 7.17 0 10.826-.143 1.506-.645 2.223-1.72 2.367l-.861.143v.86h11.544v-1.003l-1.506-.144c-1.219-.143-1.65-.86-1.72-2.366-.216-3.37-.288-6.74-.144-10.038.645-.86 3.37-1.65 5.808 0l2.007-5.02z" fill="#fff"/></svg>