<svg width="235" height="27" fill="none" xmlns="http://www.w3.org/2000/svg"><path fill-rule="evenodd" clip-rule="evenodd" d="M154.307.185a15.714 15.714 0 018.832 1.569 12.681 12.681 0 014.952 4.574 11.666 11.666 0 011.472 3.528c.359 1.63.449 3.306.268 4.964a13.411 13.411 0 01-2.81 7.32 11.385 11.385 0 01-5.754 3.79 15.25 15.25 0 01-4.149.653 16.34 16.34 0 01-8.564-1.83 12.873 12.873 0 01-5.754-6.665 13.658 13.658 0 01-.803-5.619c.142-1.78.643-3.514 1.472-5.096a12.961 12.961 0 016.824-6.142 10.737 10.737 0 014.015-1.046h-.001zm.536 1.438a8.566 8.566 0 00-4.015 1.307 11.697 11.697 0 00-3.479 3.267 10.405 10.405 0 00-1.606 4.837 13.8 13.8 0 00.268 5.227 13.41 13.41 0 002.007 4.443c.183.293.408.557.669.784.279.338.593.644.937.915a5.93 5.93 0 001.472 1.045 10.817 10.817 0 004.683 1.307c1.59.114 3.186-.108 4.684-.654a11.503 11.503 0 002.676-1.698 8.485 8.485 0 002.007-3.006c.56-1.38.92-2.832 1.071-4.313a15.542 15.542 0 00-.134-4.312 14.709 14.709 0 00-1.472-4.051 9.574 9.574 0 00-4.951-4.443 11.648 11.648 0 00-4.817-.654z" fill="#fff"/><path d="M188.802.723h3.613V7.9c2.141-2.35 4.416-4.828 6.555-7.177h2.409c-.402.521-.803.913-1.204 1.435-1.874 2.088-3.883 4.175-5.754 6.264a5.002 5.002 0 014.55 4.828c.226 1.204.316 2.43.267 3.653a2.82 2.82 0 00.134 1.044v.914c.134 1.435.134 2.871.803 4.306.202.505.523.953.937 1.305a1.667 1.667 0 002.141-.914c.134.131.268.262.402.262a3.74 3.74 0 01-2.81 1.827 3.44 3.44 0 01-2.007-.261 3.904 3.904 0 01-1.874-2.219 12.059 12.059 0 01-.668-4.306c0-1.566 0-3.132-.134-4.697a9.671 9.671 0 00-.402-2.741 2.588 2.588 0 00-.535-1.044 3.907 3.907 0 00-1.606-1.304 3.79 3.79 0 00-1.204-.13v16.18h-3.747V4.505c.119-1.258.163-2.521.134-3.784v.002zM60.128.856h3.078c4.282 5.35 8.565 10.57 12.847 15.92V.856h2.007v24.923a7.19 7.19 0 01-.937-1.174c-4.951-6.263-9.902-12.527-14.854-18.92v19.833h-2.007V15.6c-.134-4.959-.134-9.787-.134-14.745zM92.205.853h3.882c1.07 2.218 2.007 4.307 3.078 6.525 1.739 3.785 3.613 7.701 5.352 11.485a47.445 47.445 0 011.739-3.785c-2.141-4.698-4.148-9.266-6.289-13.964 0-.13-.133-.261-.133-.392h3.613a.127.127 0 01.133.13c1.606 3.133 3.078 6.265 4.684 9.528 1.472-3.132 2.944-6.395 4.416-9.527 0-.13.134-.13.268-.13h1.739c-.133.39-.401.782-.535 1.174a937.844 937.844 0 00-4.817 11.093c0 .13.134.261.134.392.535 1.043.936 2.088 1.472 3.132.401.782.668 1.435 1.07 2.218 1.071-2.349 2.141-4.567 3.078-6.917 1.606-3.393 3.078-6.786 4.683-10.179l.402-.783h2.275c-2.141 4.568-4.149 9.136-6.29 13.704-1.739 3.654-3.345 7.438-5.085 11.093a.984.984 0 01-.268-.522l-3.613-7.439c-1.07 2.35-2.141 4.568-3.211 6.917-.122.414-.302.81-.535 1.174a20.573 20.573 0 01-1.337-3.001c-3.211-7.048-6.423-14.225-9.769-21.273 0-.26-.133-.391-.133-.652l-.003-.001zM172.47.857h5.353a7.583 7.583 0 012.408.26 5.991 5.991 0 012.81 1.566 4.75 4.75 0 011.204 3.524 5.142 5.142 0 01-1.336 3.392 6.804 6.804 0 01-3.343 1.695c1.138.1 2.215.556 3.078 1.305a4.148 4.148 0 011.336 2.61c.402 1.565.268 3 .268 4.566.061 1.255.332 2.49.803 3.654.221.542.657.967 1.204 1.174a1.72 1.72 0 001.874-.913c.134.13.268.13.402.26 0 .131-.134.131-.134.262a3.916 3.916 0 01-3.346 1.566 3.475 3.475 0 01-2.542-1.305c-.804-.913-1.071-2.219-1.337-3.393a13.878 13.878 0 01-.134-2.35c0-1.695 0-3.522-.668-5.09a2.48 2.48 0 00-.937-1.436 2.998 2.998 0 00-2.141-.652v-.522a3.8 3.8 0 002.542-1.958 4.491 4.491 0 00.669-2.609c.065-1.002-.167-2-.669-2.871a3.562 3.562 0 00-2.409-1.435h-1.873v23.097h-3.751V18.08c0-1.696.134-3.393.134-5.219v-2.088c0-1.696.134-3.523.134-5.219V3.86a7.431 7.431 0 00.401-3.001V.857zM219.178.856h4.416c.984-.021 1.967.022 2.945.13a5.52 5.52 0 013.077 1.698 4.383 4.383 0 011.205 3.132 4.86 4.86 0 01-.804 3.001 5.002 5.002 0 01-2.809 2.088c-.402.13-.937.261-1.337.392a4.86 4.86 0 013.21 1.435 4.802 4.802 0 011.336 2.87c.268 1.567.134 3.133.268 4.699a8.333 8.333 0 001.071 3.654c.255.29.576.513.936.652a1.719 1.719 0 001.874-.913c.134.13.268.13.402.26a4.322 4.322 0 01-2.677 1.828c-.765.18-1.57.088-2.274-.261a3.905 3.905 0 01-1.874-2.219 12.79 12.79 0 01-.669-4.437 23.48 23.48 0 00-.401-4.307c-.268-.783-.402-1.566-1.071-2.088a2.173 2.173 0 00-1.472-.652h-.668v-.524a4.86 4.86 0 002.542-1.697 6.333 6.333 0 00.804-2.218 5.654 5.654 0 00-.669-3.654 2.875 2.875 0 00-1.606-1.174 6.678 6.678 0 00-1.606-.13h-.937v23.23h-3.747v-2.22c0-1.696 0-3.392.134-5.218v-1.828c0-1.957.133-3.914.133-5.741 0-1.436 0-2.871.134-4.307V4.118c0-1.174.134-2.218.134-3.262zM1.336 1.117c0-.128.134 0 .268-.128H18.2c.46 1.02.862 2.066 1.205 3.13a8.802 8.802 0 00-4.818-1.565h-3.077v23.09H7.898V2.554H4.95A8.013 8.013 0 00.669 3.6C.4 3.726.267 3.859 0 3.99c0-.26.268-.522.402-.913.268-.522.668-1.305.936-1.957l-.002-.003zM21.678.99h3.613v10.044h9.101V.99h2.81v24.656h-2.81V12.339h-9.101v13.306h-3.613V.989zM39.677.99h10.036c.134 0 .134 0 .134.127.267.652.669 1.434.936 2.086.134.128.134.392.268.522a6.528 6.528 0 00-4.282-1.434H43.29v8.608h4.151a3.472 3.472 0 001.606-.26c.296-.127.568-.304.803-.523v3a1.845 1.845 0 00-.535-.39 5.491 5.491 0 00-2.007-.392h-4.015v11.478h3.883a11.808 11.808 0 004.683-1.174c-.535.782-1.204 1.565-1.74 2.217a2.861 2.861 0 01-.535.652h-9.907v-9.909V.989zM81.012 1.124h9.233c.268.521.535 1.043.803 1.695.134.391.402.783.535 1.174L90.38 3.21c-.94-.398-1.93-.662-2.944-.783h-2.542v8.608h3.211c.937 0 1.874.128 2.676-.26.268-.128.535-.392.803-.522v3.651a3.478 3.478 0 00-1.472-.913 3.759 3.759 0 00-1.739-.26h-3.48v11.347h2.81c1.606 0 3.212 0 4.818-.127a11.096 11.096 0 004.55-1.566c.133-.127.401-.26.535-.39-.67 1.173-1.204 2.347-1.874 3.651H80.878V23.69c0-1.826 0-3.652.134-5.479v-1.695c0-2.61.133-5.346.133-7.956V3.214a5.813 5.813 0 01-.133-2.087v-.003zM126.519 1.124h2.141c2.275 3.783 4.55 7.567 6.691 11.35l6.423-10.959c.134-.13.134-.391.402-.261h2.141c-2.275 3.914-4.684 7.959-6.959 11.873v12.786h-3.747V13.127c-2.409-4.175-4.817-8.09-7.092-12.003zM205.261 1.124h10.17c.268.391.402.913.669 1.304.277.452.502.933.669 1.436-.402-.261-.669-.522-1.07-.783a5.65 5.65 0 00-2.543-.653h-4.282v8.613h3.211c.806.021 1.611-.022 2.409-.13a2.72 2.72 0 001.071-.523v3.002a3.68 3.68 0 00-1.606-.783 8.988 8.988 0 00-1.874 0h-3.077V24.22c1.605 0 3.077 0 4.683-.13 1.34-.147 2.65-.499 3.882-1.044a7.19 7.19 0 01-.936 1.174c-.402.652-.937 1.174-1.337 1.827h-9.905c-.134-8.482-.134-16.703-.134-24.924z" fill="#fff"/></svg>