<svg width="255" height="36" viewBox="0 0 255 36" fill="none" xmlns="http://www.w3.org/2000/svg"><g><path d="M20.7526 4.43694C21.4512 4.43694 22.1498 3.86726 22.1498 3.04439C22.1498 2.34811 21.5783 1.65183 20.7526 1.65183C20.054 1.71513 19.4189 2.28481 19.4189 3.04439C19.4189 3.80396 19.9905 4.43694 20.7526 4.43694ZM20.7526 31.4019C20.054 31.4019 19.3554 31.9716 19.3554 32.7944C19.3554 33.4907 19.927 34.187 20.7526 34.187C21.4512 34.187 22.1498 33.6173 22.1498 32.7944C22.1498 32.0982 21.5147 31.4019 20.7526 31.4019ZM8.17783 24.0593C7.79678 23.996 7.47923 23.996 7.16169 24.1859C6.84414 24.3758 6.65361 24.6923 6.5266 24.9455C6.46309 25.3253 6.46309 25.6418 6.65361 25.9583C6.97116 26.4013 7.35221 26.5912 7.79678 26.5912C7.98731 26.5912 8.24134 26.5279 8.43187 26.4013C8.74941 26.2114 9.00345 25.895 9.06696 25.6418C9.13047 25.262 9.13047 24.9455 8.93994 24.629C8.87643 24.3125 8.55889 24.1226 8.17783 24.0593ZM34.026 9.24759C33.645 9.18429 33.3274 9.18429 33.0099 9.37419C32.3748 9.75397 32.1208 10.5768 32.5018 11.2098C32.6924 11.5263 33.0099 11.7162 33.2639 11.8428C33.391 11.8428 33.4545 11.9061 33.645 11.9061C33.8355 11.9061 34.0896 11.8428 34.2801 11.7162C34.5976 11.5263 34.8517 11.2098 34.9152 10.9566C34.9787 10.5768 34.9787 10.2604 34.7882 9.94387C34.6611 9.50078 34.3436 9.31089 34.026 9.24759ZM34.3436 24.1859C34.026 23.996 33.7085 23.996 33.3274 24.0593C33.1369 24.1226 32.8829 24.2492 32.7559 24.4391L30.3425 22.9833C30.4695 22.6035 30.4695 22.287 30.406 21.9072C30.279 21.4008 29.9615 21.021 29.5169 20.7678C28.5643 20.2614 27.4211 20.5779 26.913 21.4641C26.5955 21.9072 26.5955 22.4136 26.7225 22.92C26.7225 22.9832 26.7225 22.9832 26.786 23.0465L22.2769 25.6418C21.8958 25.1987 21.3877 25.0088 20.8161 25.0088C20.2446 25.0088 19.7365 25.3253 19.3554 25.6418L14.9098 23.0465C14.9098 22.9832 14.9098 22.9832 14.9733 22.92C15.1003 22.4136 15.0368 21.9072 14.7828 21.4641C14.4652 21.021 14.1477 20.7678 13.6396 20.5779C13.5761 20.5779 13.5761 20.5779 13.5126 20.5779V15.3242C13.5761 15.3242 13.5761 15.3242 13.6396 15.3242C14.1477 15.1976 14.5287 14.8811 14.7828 14.438C15.0368 13.9949 15.1003 13.4886 14.9733 12.9822C14.9733 12.9189 14.9733 12.9189 14.9098 12.8556L19.4189 10.387C19.8 10.83 20.3081 11.0199 20.8797 11.0199C21.9593 11.0199 22.7214 10.1338 22.7214 9.18429C22.7214 8.17152 21.8323 7.34865 20.8797 7.34865C19.927 7.34865 19.0379 8.23482 19.0379 9.18429C19.0379 9.37419 19.1014 9.62738 19.1649 9.81727L14.6558 12.4125C14.5287 12.2859 14.3382 12.096 14.1477 11.9694C13.7031 11.6529 13.1951 11.6529 12.687 11.7795C12.1789 11.9061 11.7979 12.2226 11.5438 12.6657C11.0357 13.6152 11.3533 14.7545 12.2424 15.2609C12.4329 15.3242 12.6235 15.3875 12.814 15.4508V20.7045C12.6235 20.7678 12.3694 20.7678 12.2424 20.8944C11.7979 21.2109 11.5438 21.5274 11.3533 22.0338C11.1628 22.5402 11.2898 23.0465 11.5438 23.4896C11.8614 23.9327 12.1789 24.1859 12.687 24.3758C12.8775 24.3125 13.068 24.3125 13.2586 24.3125C13.6396 24.3125 13.8937 24.2492 14.2112 23.996C14.4017 23.9327 14.5923 23.8061 14.7193 23.5529L19.2284 26.1481C19.1649 26.338 19.1014 26.5912 19.1014 26.7811C19.1014 27.8572 19.9905 28.6168 20.9432 28.6168C21.9593 28.6168 22.7849 27.7306 22.7849 26.7811C22.7849 26.5912 22.7214 26.338 22.6579 26.1481L27.1671 23.5529C27.2941 23.6795 27.4846 23.8694 27.6751 23.996C27.9927 24.1226 28.3102 24.3125 28.6278 24.3125C29.1358 24.3125 29.7074 24.1226 30.0885 23.6795L32.5018 25.1354C32.4383 25.3253 32.4383 25.5785 32.5018 25.8317C32.5653 26.2114 32.8194 26.4646 33.1369 26.5912C33.3274 26.7178 33.5815 26.7811 33.772 26.7811C33.899 26.7811 33.9625 26.7811 34.1531 26.7178C34.5341 26.6545 34.7882 26.4013 34.9152 26.0849C35.1057 25.7684 35.1057 25.4519 35.0422 25.0721C34.8517 24.6923 34.6611 24.3125 34.3436 24.1859ZM7.2252 11.6529C7.41572 11.7795 7.66976 11.8428 7.86029 11.8428C7.98731 11.8428 8.05081 11.8428 8.24134 11.7795C8.6224 11.7162 8.87643 11.463 9.00345 11.1465C9.38451 10.5135 9.13047 9.62738 8.49538 9.31089C7.86029 8.9311 6.97116 9.18429 6.65361 9.81727C6.46309 10.1338 6.46309 10.4503 6.5266 10.83C6.5901 11.2098 6.84414 11.5263 7.2252 11.6529ZM11.6708 2.22151C12.1789 1.90502 12.3059 1.27205 12.0519 0.765661C11.7979 0.259277 11.0993 0.132681 10.5912 0.385873C10.0831 0.639065 9.95609 1.33534 10.2101 1.84173C10.5277 2.28481 11.1628 2.47471 11.6708 2.22151ZM29.898 33.7439C29.3899 34.0604 29.2629 34.6934 29.5169 35.1998C29.8344 35.7061 30.4695 35.8327 30.9776 35.5795C31.4857 35.2631 31.6127 34.6301 31.3587 34.1237C31.0411 33.554 30.406 33.4274 29.898 33.7439ZM11.6708 33.7439C11.1628 33.4274 10.5277 33.6173 10.2101 34.1237C9.89258 34.6301 10.0831 35.2631 10.5912 35.5795C11.0993 35.896 11.7343 35.7061 12.0519 35.1998C12.3059 34.6301 12.1789 33.9971 11.6708 33.7439ZM29.898 2.22151C30.406 2.538 31.0411 2.34811 31.3587 1.84173C31.6762 1.33534 31.4857 0.702363 30.9776 0.385873C30.4695 0.132681 29.8344 0.259277 29.5804 0.765661C29.1994 1.20875 29.3899 1.84173 29.898 2.22151ZM40.1229 16.9066C39.5513 16.9066 39.0433 17.413 39.0433 17.9827C39.0433 18.5524 39.5513 19.0588 40.1229 19.0588C40.6945 19.0588 41.2026 18.5524 41.2026 17.9827C41.1391 17.413 40.6945 16.9066 40.1229 16.9066ZM1.44587 16.9066C0.874284 16.9066 0.366211 17.413 0.366211 17.9827C0.366211 18.5524 0.874284 19.0588 1.44587 19.0588C2.01745 19.0588 2.52552 18.5524 2.52552 17.9827C2.46201 17.413 2.01745 16.9066 1.44587 16.9066ZM28.5007 15.3875C28.8183 15.3875 29.1358 15.3242 29.4534 15.071C30.406 14.5646 30.6601 13.4253 30.152 12.4758C29.6439 11.5263 28.5007 11.2731 27.5481 11.7795C27.1035 12.096 26.8495 12.4125 26.659 12.9189C26.532 13.4253 26.5955 13.9316 26.8495 14.3747C27.1671 15.0077 27.8021 15.3875 28.5007 15.3875Z" fill="#fff"/><path d="M223.156 10.1971C223.156 10.9566 222.521 11.463 221.695 11.463C221.06 11.463 220.425 10.9566 220.425 10.1971C220.425 9.31089 220.997 8.74121 221.822 8.74121C222.648 8.80451 223.156 9.37419 223.156 10.1971ZM61.8429 20.7678C62.2875 19.8184 62.4145 18.9322 62.4145 17.7295C62.4145 15.6407 61.7159 13.9949 60.3187 12.6657C58.9215 11.2731 57.2703 10.6402 55.3015 10.6402C53.3327 10.6402 51.618 11.2731 50.2843 12.6657C48.9506 14.0582 48.1885 15.704 48.1885 17.7295C48.1885 19.7551 48.8871 21.4641 50.2843 22.7934C51.6815 24.1859 53.3327 24.8189 55.3015 24.8189C57.2703 24.8189 58.7945 24.1859 60.1917 22.9833L62.0335 24.1859L63.6212 21.8439L61.8429 20.7678ZM59.3661 19.1854L57.7148 18.1093L56.1271 20.4513L57.7784 21.5274C57.0798 22.0338 56.2541 22.287 55.238 22.287C53.9678 22.287 52.9517 21.8439 52.126 21.0843C51.3639 20.1981 50.9829 19.1221 50.9829 17.7928C50.9829 16.4636 51.3639 15.3875 52.126 14.5013C52.8881 13.6152 53.9043 13.2987 55.238 13.2987C56.5082 13.2987 57.5243 13.7418 58.3499 14.5013C59.1756 15.2609 59.4931 16.4636 59.4931 17.7928C59.5566 18.2359 59.4296 18.7423 59.3661 19.1854ZM74.5448 19.7551C74.5448 20.6412 74.3542 21.2742 73.9097 21.7806C73.4651 22.2237 72.83 22.4769 72.1314 22.4769C71.4328 22.4769 70.7342 22.287 70.3532 21.7806C69.9086 21.3375 69.7181 20.6412 69.7181 19.7551V13.6785H66.9237V20.1348C66.9237 21.5907 67.3682 22.7934 68.1303 23.5529C68.8924 24.4391 69.9086 24.7556 71.2423 24.7556C72.83 24.7556 73.8462 24.4391 74.6718 23.5529V24.629H77.4662V13.7418H74.6718V19.7551H74.5448ZM104.076 13.7418C102.489 13.7418 101.473 14.0582 100.647 14.9444V13.8683H97.8526V24.8822H100.647V18.8056C100.647 17.9194 100.838 17.2864 101.282 16.7801C101.727 16.337 102.362 16.0838 103.06 16.0838C103.822 16.0838 104.458 16.2737 104.839 16.7801C105.283 17.2231 105.474 17.9194 105.474 18.8056V24.8822H108.268V18.4891C108.268 17.0332 107.824 15.8306 107.061 15.071C106.299 14.1848 105.347 13.7418 104.076 13.7418ZM90.1045 13.7418V14.8178C89.5329 14.2481 88.1357 13.6152 86.675 13.6152C85.2143 13.6152 83.9441 14.1215 82.928 15.1976C81.9118 16.2737 81.4037 17.6029 81.4037 19.312C81.4037 21.021 81.9118 22.3503 82.928 23.4263C83.9441 24.5024 85.1508 25.0088 86.675 25.0088C87.6276 25.0088 88.8343 24.8822 90.1045 23.8694V24.8822H92.8989V13.7418H90.1045ZM89.2154 21.5907C88.6438 22.1604 87.9452 22.4769 87.1831 22.4769C86.421 22.4769 85.7224 22.1604 85.1508 21.5907C84.5792 21.021 84.2617 20.1981 84.2617 19.2487C84.2617 18.2992 84.5792 17.4763 85.1508 16.9067C85.7224 16.337 86.421 16.0205 87.1831 16.0205C87.9452 16.0205 88.6438 16.337 89.2789 16.9067C89.8505 17.4763 90.168 18.2992 90.168 19.2487C90.1045 20.2614 89.7869 21.021 89.2154 21.5907ZM129.798 13.7418V14.8178C129.226 14.2481 127.829 13.6152 126.368 13.6152C124.907 13.6152 123.637 14.1215 122.621 15.1976C121.605 16.2737 121.097 17.6029 121.097 19.312C121.097 21.021 121.605 22.3503 122.621 23.4263C123.637 24.5024 124.844 25.0088 126.368 25.0088C127.321 25.0088 128.528 24.8822 129.798 23.8694V24.8822H132.592V13.7418H129.798ZM128.972 21.5907C128.4 22.1604 127.702 22.4769 126.94 22.4769C126.178 22.4769 125.479 22.1604 124.907 21.5907C124.336 21.021 124.018 20.1981 124.018 19.2487C124.018 18.2992 124.336 17.4763 124.907 16.9067C125.416 16.2737 126.114 15.9572 126.876 15.9572C127.638 15.9572 128.337 16.2737 128.972 16.8434C129.544 17.413 129.861 18.2359 129.861 19.1854C129.798 20.2614 129.544 21.021 128.972 21.5907ZM116.397 22.4136C115.635 22.4136 115 21.9072 115 20.8944V16.337H117.921V14.0582H115V11.2098H112.333V14.0582V16.337V20.8944C112.333 23.5529 113.857 24.8189 116.143 24.7556C116.905 24.7556 117.604 24.629 118.303 24.3125L117.604 22.0971C117.223 22.3503 116.715 22.4136 116.397 22.4136Z" fill="#fff"/><path d="M157.297 24.1858L157.234 24.8821C156.472 24.8821 155.519 24.8188 154.439 24.8188C153.36 24.8188 152.471 24.8821 151.835 24.8821V24.1858C152.979 24.1225 153.296 23.9959 153.296 23.5528C153.36 22.9832 153.36 21.8438 153.36 19.8816C153.36 16.7167 153.36 16.4002 153.169 16.0204C152.852 15.3874 152.28 15.0076 151.454 15.0076C150.311 15.0076 149.295 15.7039 148.787 16.6534C148.66 17.0331 148.47 17.2863 148.47 17.7294V21.0842C148.47 22.0337 148.47 22.9199 148.533 23.4895C148.533 23.9959 148.851 24.1225 150.121 24.1225L150.057 24.8188C149.422 24.8188 148.279 24.7555 147.263 24.7555C146.247 24.7555 145.421 24.8188 144.722 24.8188V24.1225C145.866 24.0592 146.183 23.9959 146.183 23.4262C146.247 22.6667 146.247 21.8438 146.247 20.2613V18.2358C146.247 16.5268 146.247 16.2103 146.12 15.8938C145.802 15.2608 145.358 14.9443 144.468 14.9443C143.389 14.9443 142.309 15.5773 141.738 16.6534C141.547 17.0964 141.42 17.2863 141.42 17.856V21.1475C141.42 22.1603 141.42 22.9199 141.483 23.4895C141.547 23.9959 141.801 24.0592 143.008 24.1225L142.944 24.7555C142.373 24.7555 141.166 24.6922 140.213 24.6922C139.261 24.6922 138.372 24.7555 137.546 24.7555V24.0592C138.816 24.0592 139.07 23.9326 139.07 23.3629C139.07 22.73 139.134 21.7172 139.134 20.3246V18.2358C139.134 16.8433 139.134 15.8305 139.07 15.1342C139.07 14.7544 138.88 14.6911 137.482 14.6911L137.546 14.0581C138.753 14.0581 140.15 13.9315 141.293 13.6784C141.356 14.1214 141.42 15.2608 141.42 15.6406C142.373 14.6911 143.706 13.5518 145.548 13.5518C147.009 13.5518 147.644 14.1214 147.961 14.6278C148.152 14.9443 148.342 15.2608 148.406 15.5773C149.295 14.6911 150.565 13.5518 152.534 13.5518C154.058 13.5518 154.884 14.3113 155.265 15.0076C155.583 15.514 155.646 16.0837 155.646 16.6534V23.3629C155.646 24.0592 155.773 24.1225 157.297 24.1858ZM171.714 22.4135L172.349 22.73C171.968 24.5023 170.952 25.1353 169.809 25.1353C168.538 25.1353 168.03 24.3757 167.84 23.2996C166.76 24.5023 165.426 25.1353 164.22 25.1353C162.251 25.1353 161.108 23.7427 161.108 22.0337C161.108 21.0209 161.552 20.198 162.569 19.755C164.283 19.0587 166.887 18.2358 167.903 17.5395V16.5268C167.903 15.4507 167.395 14.3746 165.935 14.3746C164.41 14.3746 163.775 15.1342 163.775 16.147C163.775 16.4635 163.839 16.7167 163.839 16.9065C163.902 17.0964 163.775 17.3496 163.648 17.4129C163.458 17.5395 163.14 17.7294 162.759 17.7294C162.187 17.7294 161.679 17.4129 161.679 16.5901C161.679 15.3241 163.521 13.6784 166.252 13.6784C168.411 13.6784 169.364 14.6278 169.618 15.1342C169.809 15.514 169.999 16.0204 169.999 16.4002V22.7933C169.999 23.7427 170.317 23.8693 170.571 23.8693C171.079 23.9326 171.46 23.4262 171.714 22.4135ZM167.84 18.2991C167.141 18.6789 165.807 19.2486 164.918 19.755C164.156 20.198 163.648 20.5145 163.648 21.7172C163.648 22.9199 164.283 23.8693 165.426 23.8693C166.633 23.8693 167.395 23.1731 167.776 22.2236C167.84 21.9071 167.903 21.5273 167.903 21.1475V18.3624L167.84 18.2991ZM184.225 19.6284C183.273 19.6284 182.193 19.5651 181.558 19.5651V20.198L182.637 20.2613C183.527 20.3246 183.654 20.4512 183.654 21.2108C183.654 21.9704 183.654 22.9199 183.59 23.4895C183.527 24.0592 182.828 24.439 181.812 24.439C180.732 24.439 179.779 24.0592 179.081 23.1731C178.446 22.4135 178.128 20.9576 178.128 19.5018C178.128 17.9193 178.509 16.7167 179.144 15.8305C179.716 14.9443 180.605 14.5645 181.685 14.5645C183.527 14.5645 184.606 15.7672 184.86 18.1725H185.495C185.432 16.6534 185.622 14.7544 185.813 14.0581L185.241 13.8682L184.86 14.8177C184.479 14.4379 183.59 13.8049 181.748 13.8049C180.605 13.8049 179.589 13.9948 178.7 14.5012C176.985 15.4507 175.969 17.2863 175.969 19.5018C175.969 21.2108 176.414 22.5401 177.176 23.4262C178.065 24.5023 179.462 25.072 181.558 25.072C182.447 25.072 183.336 24.8821 184.162 24.6289C184.86 24.439 185.432 24.1858 185.876 24.1225C185.813 23.7427 185.749 23.1731 185.749 22.3502C185.749 21.8438 185.749 21.1475 185.813 20.7044C185.813 20.3246 186.003 20.2613 186.893 20.1347V19.5018C186.13 19.6284 185.178 19.6284 184.225 19.6284ZM201.182 22.4135L201.817 22.73C201.436 24.5023 200.42 25.1353 199.277 25.1353C198.007 25.1353 197.499 24.3757 197.308 23.2996C196.228 24.5023 194.895 25.1353 193.688 25.1353C191.719 25.1353 190.576 23.7427 190.576 22.0337C190.576 21.0209 191.021 20.198 192.037 19.755C193.752 19.0587 196.355 18.2358 197.372 17.5395V16.5268C197.372 15.4507 196.863 14.3746 195.403 14.3746C193.879 14.3746 193.243 15.1342 193.243 16.147C193.243 16.4635 193.307 16.7167 193.307 16.9065C193.37 17.0964 193.243 17.3496 193.116 17.4129C192.926 17.5395 192.608 17.7294 192.227 17.7294C191.656 17.7294 191.148 17.4129 191.148 16.5901C191.148 15.3241 192.989 13.6784 195.72 13.6784C197.88 13.6784 198.832 14.6278 199.086 15.1342C199.277 15.514 199.467 16.0204 199.467 16.4002V22.7933C199.467 23.7427 199.785 23.8693 200.039 23.8693C200.547 23.9326 200.928 23.4262 201.182 22.4135ZM197.308 18.2991C196.609 18.6789 195.276 19.2486 194.387 19.755C193.624 20.198 193.116 20.5145 193.116 21.7172C193.116 22.9199 193.752 23.8693 194.895 23.8693C196.101 23.8693 196.863 23.1731 197.245 22.2236C197.308 21.9071 197.372 21.5273 197.372 21.1475V18.3624L197.308 18.2991ZM212.487 23.806C211.788 23.9326 210.454 23.9959 208.486 23.9959C209.756 21.9704 213.566 16.2736 214.138 15.3874C214.455 14.881 214.71 14.3746 214.773 13.8682C213.757 13.8682 212.931 13.9315 210.962 13.9315H208.803C207.342 13.9315 206.517 13.8682 206.072 13.6151C206.072 15.1342 205.945 16.78 205.755 17.7927L206.39 17.6661C206.517 17.0964 206.707 16.4635 206.898 15.8305C207.215 15.0709 207.533 14.8177 208.613 14.7544C209.629 14.6911 210.708 14.6911 211.788 14.6911C211.153 15.9571 208.041 21.0209 205.31 24.3124L205.628 24.8188C206.072 24.8188 206.834 24.7555 208.295 24.7555C211.026 24.7555 213.884 24.8188 214.837 24.8821C214.9 23.7427 215.154 21.7805 215.281 20.7044L214.646 20.5778C214.074 23.1098 213.503 23.7427 212.487 23.806ZM223.156 23.4895C223.156 22.9832 223.093 22.097 223.093 20.5778V17.6661C223.093 15.8305 223.156 14.3746 223.156 13.8049C222.013 14.1214 220.362 14.1847 219.155 14.248V14.881C220.552 14.8177 220.743 14.881 220.743 15.2608C220.743 15.6406 220.806 16.4635 220.806 17.856V20.5145C220.806 21.9704 220.743 23.0465 220.743 23.4262C220.743 23.806 220.552 24.0592 219.028 24.1225V24.8188C219.79 24.8188 220.552 24.7555 221.759 24.7555C222.966 24.7555 223.918 24.8188 224.617 24.8188V24.1225C223.41 24.1225 223.156 24.0592 223.156 23.4895ZM239.669 23.4895V16.8433C239.669 16.2736 239.605 15.7039 239.288 15.2608C238.907 14.5012 238.081 13.7417 236.43 13.7417C234.651 13.7417 233.381 14.8177 232.492 15.7039C232.492 15.3241 232.429 14.3113 232.365 13.8682C231.222 14.0581 229.952 14.248 228.682 14.248L228.618 14.881C229.888 14.881 230.142 14.9443 230.142 15.3241C230.206 15.9571 230.206 17.0331 230.206 18.4257V20.5145C230.206 21.7172 230.142 22.6667 230.142 23.3629C230.142 23.9326 229.952 23.9959 228.618 24.0592V24.7555C229.317 24.7555 230.206 24.6922 231.285 24.6922C232.238 24.6922 233.445 24.7555 234.08 24.7555L234.143 24.0592C232.873 23.9959 232.619 23.9326 232.619 23.4262C232.556 22.8566 232.556 21.8438 232.556 20.7677V17.856C232.556 17.2863 232.619 16.9065 232.873 16.5901C233.445 15.5773 234.397 15.0076 235.604 15.0076C236.493 15.0076 237.001 15.3874 237.319 15.9571C237.509 16.4002 237.636 16.6534 237.636 19.8183C237.636 21.8438 237.573 22.9832 237.573 23.4895C237.509 23.9959 237.255 24.0592 236.112 24.1225V24.8188C236.684 24.8188 237.573 24.7555 238.716 24.7555C239.796 24.7555 240.748 24.8188 241.51 24.8188L241.574 24.1225C239.796 24.1225 239.669 24.0592 239.669 23.4895ZM253.768 21.5273L254.403 21.9071C253.641 24.1858 252.053 25.1353 249.894 25.1353C247.925 25.1353 246.718 24.5656 245.893 23.4262C245.257 22.5401 244.813 21.1475 244.813 19.6284C244.813 16.4635 246.591 13.6784 250.148 13.6784C253.831 13.6784 254.466 16.5268 254.466 18.0459C254.466 18.5523 254.339 18.9321 253.958 19.0587C253.514 19.1853 252.307 19.3752 250.656 19.4385C249.767 19.4385 248.433 19.4385 247.353 19.4385C247.29 20.831 247.671 22.0337 248.115 22.73C248.687 23.6161 249.513 23.9959 250.656 23.9959C252.18 23.9959 253.133 23.2363 253.768 21.5273ZM247.353 18.6156H249.449C250.656 18.6156 251.291 18.5523 251.672 18.489C252.053 18.4257 252.18 18.1092 252.18 17.6028C252.18 16.2103 251.608 14.4379 249.957 14.4379C248.242 14.4379 247.417 16.5268 247.353 18.6156Z" fill="#fff"/></g></svg>