<svg width="133" height="28" fill="none" xmlns="http://www.w3.org/2000/svg"><path d="M46.66 8.212V5.156H33.855v3.056h4.463V20.34h-4.463v3.056h12.758V20.34h-4.85V8.212h4.899zM67.86 8.357h-5.094v4.997s2.765-.097 4.997-.097c2.231 0 2.813-.485 2.813-2.765.049-2.571-2.716-2.135-2.716-2.135z" fill="#fff"/><path fill-rule="evenodd" clip-rule="evenodd" d="M53.161.887V27.81H79.6V.887H53.16zM74.264 19.03v4.22h-3.639v-3.978s0-3.056-2.086-3.056-5.724.097-5.724.097v7.034h-3.541V5.204H69.8s4.512-.242 4.512 4.706-2.765 5.19-2.765 5.19 2.717.098 2.717 3.93z" fill="#fff"/><path d="M84.451 5.204v2.959h2.523v12.225H84.45v3.007h15.427v-5.918h-3.056v2.91h-6.55V15.44h4.852v-2.96h-4.851V8.163h6.306v2.91h3.299v-5.87H84.45zM120.932 8.26h-5.482v12.128h5.725c2.765 0 2.813-3.541 2.813-3.541V12.14c0-4.124-3.056-3.881-3.056-3.881z" fill="#fff"/><path fill-rule="evenodd" clip-rule="evenodd" d="M105.796.887V27.81h26.439V.887h-26.439zM121.32 23.54c-6.646 0-9.605.098-9.605.098V5.253h7.859s8.101-.874 8.101 6.403v5.094c-.049 0 .291 6.791-6.355 6.791zM.283.887V27.81h26.44V.887H.282zM21.29 23.396h-4.512l-2.91-13.195-3.154 13.244H6.25L2.515 5.253h3.638l2.523 13.825 3.25-13.825 3.978.097 3.25 13.971L21.58 5.253h3.493l-3.784 18.143z" fill="#fff"/></svg>