<svg width="343" height="167" viewBox="0 0 343 167" fill="none" xmlns="http://www.w3.org/2000/svg"><path d="M229.896 161.189C257.743 177.968 309.223 151.838 322.276 126.308C343.496 84.8036 332.884 27.4691 276.747 36.6762C217.521 46.3899 170.876 10.2207 118.508 9.30092C66.1398 8.38111 22.1486 20.2091 4.91198 49.0394C-12.3246 77.8698 19.1254 147.465 47.7868 155.008C70.0771 160.874 101.712 143.528 141.051 143.528C171.717 143.528 195.047 140.192 229.896 161.189Z" fill="#D9CFFC"/><path fill-rule="evenodd" clip-rule="evenodd" d="M315.895 26.986C328.277 37.4486 335.558 54.0158 339.562 71.0774C345.994 98.4883 333.2 122.75 311.947 137.824C290.668 152.917 261.104 158.631 234.48 148.933C205.225 138.278 182.014 143.117 160.969 149.743C157.368 150.877 153.857 152.053 150.399 153.212C143.7 155.456 137.199 157.634 130.63 159.307C120.743 161.824 110.935 163.124 100.637 161.649C70.6292 157.35 51.2479 151.697 38.0353 142.82C24.9288 134.014 17.7063 121.904 12.3501 104.163C6.94998 86.276 2.96288 64.7561 6.71935 46.0018C8.59122 36.6565 12.3772 28.0405 18.836 20.8842C25.2908 13.7323 34.5006 7.94313 47.3747 4.37977C63.1858 0.00353971 78.1775 2.99508 94.3734 8.0354C98.5463 9.33406 102.808 10.7729 107.179 12.2489C119.665 16.4646 133.048 20.9836 147.838 23.4067C178.825 28.4836 218.431 31.8169 260.893 19.3848C286.071 12.013 303.627 16.6208 315.895 26.986ZM341.283 70.6743C333.201 36.2345 311.669 2.67772 260.395 17.69C218.303 30.0139 179.002 26.7228 148.124 21.6638C133.49 19.2662 120.309 14.8158 107.858 10.6121C86.6068 3.43716 67.4846 -3.01898 46.9026 2.67776C-5.69684 17.2364 -0.19473 68.7276 10.6574 104.673C21.5095 140.618 40.2723 154.786 100.386 163.397C118.016 165.923 134.122 160.527 151.048 154.858C174.861 146.882 200.295 138.362 233.874 150.593C288.323 170.425 354.546 127.191 341.283 70.6743Z" fill="#C4E9F2"/></svg>
